<?xml version="1.0" encoding="UTF-8" standalone="no"?>
<!DOCTYPE svg PUBLIC "-//W3C//DTD SVG 1.1//EN" "http://www.w3.org/Graphics/SVG/1.1/DTD/svg11.dtd">
<svg version="1.1" xmlns="http://www.w3.org/2000/svg" xmlns:xlink="http://www.w3.org/1999/xlink" preserveAspectRatio="xMidYMid meet" viewBox="0 0 640 640" width="640" height="640"><defs><path d="M640 360.29L640 0C477.42 0 387.1 0 369.04 0C353.1 9.11 331.28 25.43 316.49 52.71C294.86 92.59 289.63 153.39 317.42 175.46C349.18 200.67 399.9 156.18 429.87 178.27C463.48 203.04 466.79 282.68 427.99 329.6C415.98 344.13 401.32 353.82 386.76 360.29C420.53 360.29 504.94 360.29 640 360.29Z" id="c3SSrihEYf"></path><linearGradient id="gradientbpBuIrO3o" gradientUnits="userSpaceOnUse" x1="705.93" y1="36.39" x2="53.45" y2="500.44"><stop style="stop-color: #ffbb01;stop-opacity: 1" offset="0%"></stop><stop style="stop-color: #f87747;stop-opacity: 1" offset="49.8%"></stop><stop style="stop-color: #f8d800;stop-opacity: 1" offset="64.7%"></stop><stop style="stop-color: #4c51f4;stop-opacity: 1" offset="86.3%"></stop><stop style="stop-color: #3d58f3;stop-opacity: 1" offset="100%"></stop></linearGradient><path d="M613.76 181.32C621.8 238.11 585.96 305.46 555.67 305C533.19 304.67 543.17 243.81 493.82 198.18C457.56 164.65 401.28 149.3 387 165.39C384.53 168.17 383.45 171.73 383.28 175.77C400.53 171.54 417.09 168.85 429.87 178.27C453.85 195.95 462.4 241.56 451.24 283.29C463.3 295.21 474.7 307.77 485.39 320.93C500.33 339.37 507.84 351.53 513.77 360.29C522.19 360.29 564.26 360.29 640 360.29L640 0C609.08 0 591.9 0 588.47 0C572.98 21.08 572.77 60.04 576.28 84.8C583.44 135.33 607.95 140.2 613.76 181.32Z" id="c2o8xY5Ciz"></path><linearGradient id="gradientivYVPffh7" gradientUnits="userSpaceOnUse" x1="683.9" y1="7.93" x2="431.8" y2="384.79"><stop style="stop-color: #ffffff;stop-opacity: 0.6" offset="0%"></stop><stop style="stop-color: #ffffff;stop-opacity: 0.051" offset="68.60000000000001%"></stop><stop style="stop-color: #ffffff;stop-opacity: 0" offset="100%"></stop></linearGradient><path d="M123.84 80.06C117.73 78.1 82.42 66.77 70.39 97.09C67.8 103.64 62.86 119.1 67.67 125.49C72.15 131.44 94.22 130.03 125.2 119.24C157.86 107.87 165.17 123.85 166.06 117.54C167.5 107.23 145.37 86.97 123.84 80.06Z" id="aN0udXA9n"></path><linearGradient id="gradientbTSzmpr0t" gradientUnits="userSpaceOnUse" x1="135.88" y1="80.47" x2="86.64" y2="154.01"><stop style="stop-color: #ffbf2e;stop-opacity: 1" offset="0%"></stop><stop style="stop-color: #f86447;stop-opacity: 1" offset="49.8%"></stop><stop style="stop-color: #f76649;stop-opacity: 1" offset="64.7%"></stop><stop style="stop-color: #f45c4c;stop-opacity: 1" offset="86.3%"></stop><stop style="stop-color: #3d58f3;stop-opacity: 1" offset="100%"></stop></linearGradient><path d="M0 336.43C0 338.02 0 345.98 0 360.29C159.88 360.29 248.7 360.29 266.46 360.29C226.23 341.23 197.86 307.07 141.73 300.09C88.15 293.42 29 313.96 0 336.43Z" id="cGzUXdB7p"></path><linearGradient id="gradientc7GqofTvb" gradientUnits="userSpaceOnUse" x1="660.82" y1="-26.85" x2="8.53" y2="437.02"><stop style="stop-color: #ffb100;stop-opacity: 1" offset="0%"></stop><stop style="stop-color: #6747f8;stop-opacity: 1" offset="49.8%"></stop><stop style="stop-color: #ff8d00;stop-opacity: 1" offset="64.7%"></stop><stop style="stop-color: #f48b4c;stop-opacity: 1" offset="86.3%"></stop><stop style="stop-color: #ffe700;stop-opacity: 1" offset="100%"></stop></linearGradient><path d="M0 353.73C147.23 353.73 229.02 353.73 245.38 353.73C205.15 334.67 176.78 300.51 120.64 293.53C77.94 288.21 31.7 300.18 0 316.64C0 321.59 0 333.95 0 353.73Z" id="aS7UNxouJ"></path><linearGradient id="gradiente4vyEj4GX" gradientUnits="userSpaceOnUse" x1="608.54" y1="-33.41" x2="7.85" y2="430.46"><stop style="stop-color: #ffb100;stop-opacity: 1" offset="0%"></stop><stop style="stop-color: #6747f8;stop-opacity: 1" offset="49.8%"></stop><stop style="stop-color: #ff8d00;stop-opacity: 1" offset="64.7%"></stop><stop style="stop-color: #f48b4c;stop-opacity: 1" offset="86.3%"></stop><stop style="stop-color: #ffde00;stop-opacity: 1" offset="100%"></stop></linearGradient><path d="M518.89 35.14C515.91 35.14 513.5 37.55 513.5 40.53C513.5 43.5 515.91 45.91 518.89 45.91C521.86 45.91 524.28 43.5 524.28 40.53C524.28 37.55 521.86 35.14 518.89 35.14Z" id="d2Fs2FCOY5"></path><path d="M352.33 169.6C351.55 169.6 350.92 170.23 350.92 171.01C350.92 171.79 351.55 172.41 352.33 172.41C353.1 172.41 353.73 171.79 353.73 171.01C353.73 170.23 353.1 169.6 352.33 169.6Z" id="aX7AQfdBO"></path><path d="M527.55 189.28C525.48 189.28 523.81 190.96 523.81 193.03C523.81 195.1 525.48 196.78 527.55 196.78C529.62 196.78 531.3 195.1 531.3 193.03C531.3 190.96 529.62 189.28 527.55 189.28Z" id="b1moOw7Rte"></path><path d="M366.38 16.4C364.57 16.4 363.1 17.87 363.1 19.68C363.1 21.49 364.57 22.96 366.38 22.96C368.19 22.96 369.66 21.49 369.66 19.68C369.66 17.87 368.19 16.4 366.38 16.4Z" id="e3tV9mYX2"></path><path d="M372.94 69.81C360.9 63.24 350.03 74.2 339.21 67C328.8 60.06 330.29 44.21 329.99 32.65C324.86 38.89 320.34 45.61 316.49 52.71C307.83 68.68 301.8 87.99 299.47 106.84C303.92 111.13 307.54 116.21 310.16 121.81C319.99 142.3 311.9 154.32 320.94 161.17C333.95 171.04 368.54 159.62 382.31 134.46C395.01 111.26 388.83 78.48 372.94 69.81Z" id="b1WZdLUQga"></path><linearGradient id="gradientasZfwTzpL" gradientUnits="userSpaceOnUse" x1="299.47" y1="98.67" x2="389.12" y2="98.67"><stop style="stop-color: #ffdc27;stop-opacity: 1" offset="0%"></stop><stop style="stop-color: #ffffff;stop-opacity: 0.051" offset="68.60000000000001%"></stop><stop style="stop-color: #ffffff;stop-opacity: 0" offset="100%"></stop></linearGradient></defs><g><g><g><use xlink:href="#c3SSrihEYf" opacity="1" fill="url(#gradientbpBuIrO3o)"></use><g><use xlink:href="#c3SSrihEYf" opacity="1" fill-opacity="0" stroke="#000000" stroke-width="1" stroke-opacity="0"></use></g></g><g><use xlink:href="#c2o8xY5Ciz" opacity="1" fill="url(#gradientivYVPffh7)"></use><g><use xlink:href="#c2o8xY5Ciz" opacity="1" fill-opacity="0" stroke="#000000" stroke-width="1" stroke-opacity="0"></use></g></g><g><use xlink:href="#aN0udXA9n" opacity="1" fill="url(#gradientbTSzmpr0t)"></use><g><use xlink:href="#aN0udXA9n" opacity="1" fill-opacity="0" stroke="#000000" stroke-width="1" stroke-opacity="0"></use></g></g><g><use xlink:href="#cGzUXdB7p" opacity="1" fill="url(#gradientc7GqofTvb)"></use><g><use xlink:href="#cGzUXdB7p" opacity="1" fill-opacity="0" stroke="#000000" stroke-width="1" stroke-opacity="0"></use></g></g><g><use xlink:href="#aS7UNxouJ" opacity="1" fill="url(#gradiente4vyEj4GX)"></use><g><use xlink:href="#aS7UNxouJ" opacity="1" fill-opacity="0" stroke="#000000" stroke-width="1" stroke-opacity="0"></use></g></g><g><use xlink:href="#d2Fs2FCOY5" opacity="1" fill="#ffffff" fill-opacity="1"></use><g><use xlink:href="#d2Fs2FCOY5" opacity="1" fill-opacity="0" stroke="#000000" stroke-width="1" stroke-opacity="0"></use></g></g><g><use xlink:href="#aX7AQfdBO" opacity="1" fill="#ffffff" fill-opacity="1"></use><g><use xlink:href="#aX7AQfdBO" opacity="1" fill-opacity="0" stroke="#000000" stroke-width="1" stroke-opacity="0"></use></g></g><g><use xlink:href="#b1moOw7Rte" opacity="1" fill="#ffffff" fill-opacity="1"></use><g><use xlink:href="#b1moOw7Rte" opacity="1" fill-opacity="0" stroke="#000000" stroke-width="1" stroke-opacity="0"></use></g></g><g><use xlink:href="#e3tV9mYX2" opacity="1" fill="#ffffff" fill-opacity="1"></use><g><use xlink:href="#e3tV9mYX2" opacity="1" fill-opacity="0" stroke="#000000" stroke-width="1" stroke-opacity="0"></use></g></g><g><use xlink:href="#b1WZdLUQga" opacity="1" fill="url(#gradientasZfwTzpL)"></use><g><use xlink:href="#b1WZdLUQga" opacity="1" fill-opacity="0" stroke="#000000" stroke-width="1" stroke-opacity="0"></use></g></g></g></g></svg>